<svg xmlns="http://www.w3.org/2000/svg" viewBox="0 0 402 543" width="402" height="543" role="img">
<title>20-braid-crossing-styles</title>
<path class="braid-strand" d="M 27 67 L 27 103" fill="none" stroke="#d73027" stroke-width="2" stroke-linecap="round" stroke-linejoin="round"/>
<path class="braid-strand" d="M 57 67 L 87 103" fill="none" stroke="#e08214" stroke-width="2" stroke-linecap="round" stroke-linejoin="round"/>
<path class="braid-strand" d="M 87 67 L 75.2 81.16 M 68.8 88.84 L 57 103" fill="none" stroke="#b59b00" stroke-width="2" stroke-linecap="round" stroke-linejoin="round"/>
<path class="braid-strand" d="M 117 67 L 117 103" fill="none" stroke="#23964f" stroke-width="2" stroke-linecap="round" stroke-linejoin="round"/>
<path class="braid-strand" d="M 147 67 L 147 103" fill="none" stroke="#168aad" stroke-width="2" stroke-linecap="round" stroke-linejoin="round"/>
<path class="braid-strand" d="M 177 67 L 177 103" fill="none" stroke="#5254c8" stroke-width="2" stroke-linecap="round" stroke-linejoin="round"/>
<path class="braid-strand" d="M 27 103 L 27 139" fill="none" stroke="#d73027" stroke-width="2" stroke-linecap="round" stroke-linejoin="round"/>
<path class="braid-strand" d="M 57 103 L 57 139" fill="none" stroke="#b59b00" stroke-width="2" stroke-linecap="round" stroke-linejoin="round"/>
<path class="braid-strand" d="M 87 103 L 117 139" fill="none" stroke="#e08214" stroke-width="2" stroke-linecap="round" stroke-linejoin="round"/>
<path class="braid-strand" d="M 117 103 L 105.2 117.16 M 98.8 124.84 L 87 139" fill="none" stroke="#23964f" stroke-width="2" stroke-linecap="round" stroke-linejoin="round"/>
<path class="braid-strand" d="M 147 103 L 147 139" fill="none" stroke="#168aad" stroke-width="2" stroke-linecap="round" stroke-linejoin="round"/>
<path class="braid-strand" d="M 177 103 L 177 139" fill="none" stroke="#5254c8" stroke-width="2" stroke-linecap="round" stroke-linejoin="round"/>
<path class="braid-strand" d="M 27 139 L 27 175" fill="none" stroke="#d73027" stroke-width="2" stroke-linecap="round" stroke-linejoin="round"/>
<path class="braid-strand" d="M 57 139 L 87 175" fill="none" stroke="#b59b00" stroke-width="2" stroke-linecap="round" stroke-linejoin="round"/>
<path class="braid-strand" d="M 87 139 L 75.2 153.16 M 68.8 160.84 L 57 175" fill="none" stroke="#23964f" stroke-width="2" stroke-linecap="round" stroke-linejoin="round"/>
<path class="braid-strand" d="M 117 139 L 117 175" fill="none" stroke="#e08214" stroke-width="2" stroke-linecap="round" stroke-linejoin="round"/>
<path class="braid-strand" d="M 147 139 L 147 175" fill="none" stroke="#168aad" stroke-width="2" stroke-linecap="round" stroke-linejoin="round"/>
<path class="braid-strand" d="M 177 139 L 177 175" fill="none" stroke="#5254c8" stroke-width="2" stroke-linecap="round" stroke-linejoin="round"/>
<path class="braid-strand" d="M 27 175 L 27 211" fill="none" stroke="#d73027" stroke-width="2" stroke-linecap="round" stroke-linejoin="round"/>
<path class="braid-strand" d="M 57 175 L 57 211" fill="none" stroke="#23964f" stroke-width="2" stroke-linecap="round" stroke-linejoin="round"/>
<path class="braid-strand" d="M 87 175 L 117 211" fill="none" stroke="#b59b00" stroke-width="2" stroke-linecap="round" stroke-linejoin="round"/>
<path class="braid-strand" d="M 117 175 L 105.2 189.16 M 98.8 196.84 L 87 211" fill="none" stroke="#e08214" stroke-width="2" stroke-linecap="round" stroke-linejoin="round"/>
<path class="braid-strand" d="M 147 175 L 147 211" fill="none" stroke="#168aad" stroke-width="2" stroke-linecap="round" stroke-linejoin="round"/>
<path class="braid-strand" d="M 177 175 L 177 211" fill="none" stroke="#5254c8" stroke-width="2" stroke-linecap="round" stroke-linejoin="round"/>
<path class="braid-strand" d="M 27 211 L 27 247" fill="none" stroke="#d73027" stroke-width="2" stroke-linecap="round" stroke-linejoin="round"/>
<path class="braid-strand" d="M 57 211 L 87 247" fill="none" stroke="#23964f" stroke-width="2" stroke-linecap="round" stroke-linejoin="round"/>
<path class="braid-strand" d="M 87 211 L 75.2 225.16 M 68.8 232.84 L 57 247" fill="none" stroke="#e08214" stroke-width="2" stroke-linecap="round" stroke-linejoin="round"/>
<path class="braid-strand" d="M 117 211 L 117 247" fill="none" stroke="#b59b00" stroke-width="2" stroke-linecap="round" stroke-linejoin="round"/>
<path class="braid-strand" d="M 147 211 L 147 247" fill="none" stroke="#168aad" stroke-width="2" stroke-linecap="round" stroke-linejoin="round"/>
<path class="braid-strand" d="M 177 211 L 177 247" fill="none" stroke="#5254c8" stroke-width="2" stroke-linecap="round" stroke-linejoin="round"/>
<path class="braid-strand" d="M 27 247 L 27 283" fill="none" stroke="#d73027" stroke-width="2" stroke-linecap="round" stroke-linejoin="round"/>
<path class="braid-strand" d="M 57 247 L 57 283" fill="none" stroke="#e08214" stroke-width="2" stroke-linecap="round" stroke-linejoin="round"/>
<path class="braid-strand" d="M 87 247 L 117 283" fill="none" stroke="#23964f" stroke-width="2" stroke-linecap="round" stroke-linejoin="round"/>
<path class="braid-strand" d="M 117 247 L 105.2 261.16 M 98.8 268.84 L 87 283" fill="none" stroke="#b59b00" stroke-width="2" stroke-linecap="round" stroke-linejoin="round"/>
<path class="braid-strand" d="M 147 247 L 147 283" fill="none" stroke="#168aad" stroke-width="2" stroke-linecap="round" stroke-linejoin="round"/>
<path class="braid-strand" d="M 177 247 L 177 283" fill="none" stroke="#5254c8" stroke-width="2" stroke-linecap="round" stroke-linejoin="round"/>
<path class="braid-strand" d="M 27 283 L 27 319" fill="none" stroke="#d73027" stroke-width="2" stroke-linecap="round" stroke-linejoin="round"/>
<path class="braid-strand" d="M 57 283 L 87 319" fill="none" stroke="#e08214" stroke-width="2" stroke-linecap="round" stroke-linejoin="round"/>
<path class="braid-strand" d="M 87 283 L 75.2 297.16 M 68.8 304.84 L 57 319" fill="none" stroke="#b59b00" stroke-width="2" stroke-linecap="round" stroke-linejoin="round"/>
<path class="braid-strand" d="M 117 283 L 117 319" fill="none" stroke="#23964f" stroke-width="2" stroke-linecap="round" stroke-linejoin="round"/>
<path class="braid-strand" d="M 147 283 L 147 319" fill="none" stroke="#168aad" stroke-width="2" stroke-linecap="round" stroke-linejoin="round"/>
<path class="braid-strand" d="M 177 283 L 177 319" fill="none" stroke="#5254c8" stroke-width="2" stroke-linecap="round" stroke-linejoin="round"/>
<path class="braid-strand" d="M 27 319 L 27 355" fill="none" stroke="#d73027" stroke-width="2" stroke-linecap="round" stroke-linejoin="round"/>
<path class="braid-strand" d="M 57 319 L 57 355" fill="none" stroke="#b59b00" stroke-width="2" stroke-linecap="round" stroke-linejoin="round"/>
<path class="braid-strand" d="M 87 319 L 117 355" fill="none" stroke="#e08214" stroke-width="2" stroke-linecap="round" stroke-linejoin="round"/>
<path class="braid-strand" d="M 117 319 L 105.2 333.16 M 98.8 340.84 L 87 355" fill="none" stroke="#23964f" stroke-width="2" stroke-linecap="round" stroke-linejoin="round"/>
<path class="braid-strand" d="M 147 319 L 147 355" fill="none" stroke="#168aad" stroke-width="2" stroke-linecap="round" stroke-linejoin="round"/>
<path class="braid-strand" d="M 177 319 L 177 355" fill="none" stroke="#5254c8" stroke-width="2" stroke-linecap="round" stroke-linejoin="round"/>
<path class="braid-strand" d="M 27 355 L 27 391" fill="none" stroke="#d73027" stroke-width="2" stroke-linecap="round" stroke-linejoin="round"/>
<path class="braid-strand" d="M 57 355 L 87 391" fill="none" stroke="#b59b00" stroke-width="2" stroke-linecap="round" stroke-linejoin="round"/>
<path class="braid-strand" d="M 87 355 L 75.2 369.16 M 68.8 376.84 L 57 391" fill="none" stroke="#23964f" stroke-width="2" stroke-linecap="round" stroke-linejoin="round"/>
<path class="braid-strand" d="M 117 355 L 117 391" fill="none" stroke="#e08214" stroke-width="2" stroke-linecap="round" stroke-linejoin="round"/>
<path class="braid-strand" d="M 147 355 L 147 391" fill="none" stroke="#168aad" stroke-width="2" stroke-linecap="round" stroke-linejoin="round"/>
<path class="braid-strand" d="M 177 355 L 177 391" fill="none" stroke="#5254c8" stroke-width="2" stroke-linecap="round" stroke-linejoin="round"/>
<path class="braid-strand" d="M 27 391 L 27 427" fill="none" stroke="#d73027" stroke-width="2" stroke-linecap="round" stroke-linejoin="round"/>
<path class="braid-strand" d="M 57 391 L 57 427" fill="none" stroke="#23964f" stroke-width="2" stroke-linecap="round" stroke-linejoin="round"/>
<path class="braid-strand" d="M 87 391 L 117 427" fill="none" stroke="#b59b00" stroke-width="2" stroke-linecap="round" stroke-linejoin="round"/>
<path class="braid-strand" d="M 117 391 L 105.2 405.16 M 98.8 412.84 L 87 427" fill="none" stroke="#e08214" stroke-width="2" stroke-linecap="round" stroke-linejoin="round"/>
<path class="braid-strand" d="M 147 391 L 147 427" fill="none" stroke="#168aad" stroke-width="2" stroke-linecap="round" stroke-linejoin="round"/>
<path class="braid-strand" d="M 177 391 L 177 427" fill="none" stroke="#5254c8" stroke-width="2" stroke-linecap="round" stroke-linejoin="round"/>
<path class="braid-strand" d="M 27 427 L 27 463" fill="none" stroke="#d73027" stroke-width="2" stroke-linecap="round" stroke-linejoin="round"/>
<path class="braid-strand" d="M 57 427 L 87 463" fill="none" stroke="#23964f" stroke-width="2" stroke-linecap="round" stroke-linejoin="round"/>
<path class="braid-strand" d="M 87 427 L 75.2 441.16 M 68.8 448.84 L 57 463" fill="none" stroke="#e08214" stroke-width="2" stroke-linecap="round" stroke-linejoin="round"/>
<path class="braid-strand" d="M 117 427 L 117 463" fill="none" stroke="#b59b00" stroke-width="2" stroke-linecap="round" stroke-linejoin="round"/>
<path class="braid-strand" d="M 147 427 L 147 463" fill="none" stroke="#168aad" stroke-width="2" stroke-linecap="round" stroke-linejoin="round"/>
<path class="braid-strand" d="M 177 427 L 177 463" fill="none" stroke="#5254c8" stroke-width="2" stroke-linecap="round" stroke-linejoin="round"/>
<path class="braid-strand" d="M 27 463 L 27 499" fill="none" stroke="#d73027" stroke-width="2" stroke-linecap="round" stroke-linejoin="round"/>
<path class="braid-strand" d="M 57 463 L 57 499" fill="none" stroke="#e08214" stroke-width="2" stroke-linecap="round" stroke-linejoin="round"/>
<path class="braid-strand" d="M 87 463 L 117 499" fill="none" stroke="#23964f" stroke-width="2" stroke-linecap="round" stroke-linejoin="round"/>
<path class="braid-strand" d="M 117 463 L 105.2 477.16 M 98.8 484.84 L 87 499" fill="none" stroke="#b59b00" stroke-width="2" stroke-linecap="round" stroke-linejoin="round"/>
<path class="braid-strand" d="M 147 463 L 147 499" fill="none" stroke="#168aad" stroke-width="2" stroke-linecap="round" stroke-linejoin="round"/>
<path class="braid-strand" d="M 177 463 L 177 499" fill="none" stroke="#5254c8" stroke-width="2" stroke-linecap="round" stroke-linejoin="round"/>
<path class="braid-strand" d="M 228 67 L 228 103" fill="none" stroke="#d73027" stroke-width="2" stroke-linecap="round" stroke-linejoin="round"/>
<path class="braid-strand" d="M 258 67 C 258 79 288 91 288 103" fill="none" stroke="#e08214" stroke-width="2" stroke-linecap="round" stroke-linejoin="round"/>
<path class="braid-strand" d="M 288 67 C 288 71.72 283.358666667 76.44 277.727182222 81.16 M 268.272817778 88.84 C 262.641333333 93.56 258 98.28 258 103" fill="none" stroke="#b59b00" stroke-width="2" stroke-linecap="round" stroke-linejoin="round"/>
<path class="braid-strand" d="M 318 67 L 318 103" fill="none" stroke="#23964f" stroke-width="2" stroke-linecap="round" stroke-linejoin="round"/>
<path class="braid-strand" d="M 348 67 L 348 103" fill="none" stroke="#168aad" stroke-width="2" stroke-linecap="round" stroke-linejoin="round"/>
<path class="braid-strand" d="M 378 67 L 378 103" fill="none" stroke="#5254c8" stroke-width="2" stroke-linecap="round" stroke-linejoin="round"/>
<path class="braid-strand" d="M 228 103 L 228 139" fill="none" stroke="#d73027" stroke-width="2" stroke-linecap="round" stroke-linejoin="round"/>
<path class="braid-strand" d="M 258 103 L 258 139" fill="none" stroke="#b59b00" stroke-width="2" stroke-linecap="round" stroke-linejoin="round"/>
<path class="braid-strand" d="M 288 103 C 288 115 318 127 318 139" fill="none" stroke="#e08214" stroke-width="2" stroke-linecap="round" stroke-linejoin="round"/>
<path class="braid-strand" d="M 318 103 C 318 107.72 313.358666667 112.44 307.727182222 117.16 M 298.272817778 124.84 C 292.641333333 129.56 288 134.28 288 139" fill="none" stroke="#23964f" stroke-width="2" stroke-linecap="round" stroke-linejoin="round"/>
<path class="braid-strand" d="M 348 103 L 348 139" fill="none" stroke="#168aad" stroke-width="2" stroke-linecap="round" stroke-linejoin="round"/>
<path class="braid-strand" d="M 378 103 L 378 139" fill="none" stroke="#5254c8" stroke-width="2" stroke-linecap="round" stroke-linejoin="round"/>
<path class="braid-strand" d="M 228 139 L 228 175" fill="none" stroke="#d73027" stroke-width="2" stroke-linecap="round" stroke-linejoin="round"/>
<path class="braid-strand" d="M 258 139 C 258 151 288 163 288 175" fill="none" stroke="#b59b00" stroke-width="2" stroke-linecap="round" stroke-linejoin="round"/>
<path class="braid-strand" d="M 288 139 C 288 143.72 283.358666667 148.44 277.727182222 153.16 M 268.272817778 160.84 C 262.641333333 165.56 258 170.28 258 175" fill="none" stroke="#23964f" stroke-width="2" stroke-linecap="round" stroke-linejoin="round"/>
<path class="braid-strand" d="M 318 139 L 318 175" fill="none" stroke="#e08214" stroke-width="2" stroke-linecap="round" stroke-linejoin="round"/>
<path class="braid-strand" d="M 348 139 L 348 175" fill="none" stroke="#168aad" stroke-width="2" stroke-linecap="round" stroke-linejoin="round"/>
<path class="braid-strand" d="M 378 139 L 378 175" fill="none" stroke="#5254c8" stroke-width="2" stroke-linecap="round" stroke-linejoin="round"/>
<path class="braid-strand" d="M 228 175 L 228 211" fill="none" stroke="#d73027" stroke-width="2" stroke-linecap="round" stroke-linejoin="round"/>
<path class="braid-strand" d="M 258 175 L 258 211" fill="none" stroke="#23964f" stroke-width="2" stroke-linecap="round" stroke-linejoin="round"/>
<path class="braid-strand" d="M 288 175 C 288 187 318 199 318 211" fill="none" stroke="#b59b00" stroke-width="2" stroke-linecap="round" stroke-linejoin="round"/>
<path class="braid-strand" d="M 318 175 C 318 179.72 313.358666667 184.44 307.727182222 189.16 M 298.272817778 196.84 C 292.641333333 201.56 288 206.28 288 211" fill="none" stroke="#e08214" stroke-width="2" stroke-linecap="round" stroke-linejoin="round"/>
<path class="braid-strand" d="M 348 175 L 348 211" fill="none" stroke="#168aad" stroke-width="2" stroke-linecap="round" stroke-linejoin="round"/>
<path class="braid-strand" d="M 378 175 L 378 211" fill="none" stroke="#5254c8" stroke-width="2" stroke-linecap="round" stroke-linejoin="round"/>
<path class="braid-strand" d="M 228 211 L 228 247" fill="none" stroke="#d73027" stroke-width="2" stroke-linecap="round" stroke-linejoin="round"/>
<path class="braid-strand" d="M 258 211 C 258 223 288 235 288 247" fill="none" stroke="#23964f" stroke-width="2" stroke-linecap="round" stroke-linejoin="round"/>
<path class="braid-strand" d="M 288 211 C 288 215.72 283.358666667 220.44 277.727182222 225.16 M 268.272817778 232.84 C 262.641333333 237.56 258 242.28 258 247" fill="none" stroke="#e08214" stroke-width="2" stroke-linecap="round" stroke-linejoin="round"/>
<path class="braid-strand" d="M 318 211 L 318 247" fill="none" stroke="#b59b00" stroke-width="2" stroke-linecap="round" stroke-linejoin="round"/>
<path class="braid-strand" d="M 348 211 L 348 247" fill="none" stroke="#168aad" stroke-width="2" stroke-linecap="round" stroke-linejoin="round"/>
<path class="braid-strand" d="M 378 211 L 378 247" fill="none" stroke="#5254c8" stroke-width="2" stroke-linecap="round" stroke-linejoin="round"/>
<path class="braid-strand" d="M 228 247 L 228 283" fill="none" stroke="#d73027" stroke-width="2" stroke-linecap="round" stroke-linejoin="round"/>
<path class="braid-strand" d="M 258 247 L 258 283" fill="none" stroke="#e08214" stroke-width="2" stroke-linecap="round" stroke-linejoin="round"/>
<path class="braid-strand" d="M 288 247 C 288 259 318 271 318 283" fill="none" stroke="#23964f" stroke-width="2" stroke-linecap="round" stroke-linejoin="round"/>
<path class="braid-strand" d="M 318 247 C 318 251.72 313.358666667 256.44 307.727182222 261.16 M 298.272817778 268.84 C 292.641333333 273.56 288 278.28 288 283" fill="none" stroke="#b59b00" stroke-width="2" stroke-linecap="round" stroke-linejoin="round"/>
<path class="braid-strand" d="M 348 247 L 348 283" fill="none" stroke="#168aad" stroke-width="2" stroke-linecap="round" stroke-linejoin="round"/>
<path class="braid-strand" d="M 378 247 L 378 283" fill="none" stroke="#5254c8" stroke-width="2" stroke-linecap="round" stroke-linejoin="round"/>
<path class="braid-strand" d="M 228 283 L 228 319" fill="none" stroke="#d73027" stroke-width="2" stroke-linecap="round" stroke-linejoin="round"/>
<path class="braid-strand" d="M 258 283 C 258 295 288 307 288 319" fill="none" stroke="#e08214" stroke-width="2" stroke-linecap="round" stroke-linejoin="round"/>
<path class="braid-strand" d="M 288 283 C 288 287.72 283.358666667 292.44 277.727182222 297.16 M 268.272817778 304.84 C 262.641333333 309.56 258 314.28 258 319" fill="none" stroke="#b59b00" stroke-width="2" stroke-linecap="round" stroke-linejoin="round"/>
<path class="braid-strand" d="M 318 283 L 318 319" fill="none" stroke="#23964f" stroke-width="2" stroke-linecap="round" stroke-linejoin="round"/>
<path class="braid-strand" d="M 348 283 L 348 319" fill="none" stroke="#168aad" stroke-width="2" stroke-linecap="round" stroke-linejoin="round"/>
<path class="braid-strand" d="M 378 283 L 378 319" fill="none" stroke="#5254c8" stroke-width="2" stroke-linecap="round" stroke-linejoin="round"/>
<path class="braid-strand" d="M 228 319 L 228 355" fill="none" stroke="#d73027" stroke-width="2" stroke-linecap="round" stroke-linejoin="round"/>
<path class="braid-strand" d="M 258 319 L 258 355" fill="none" stroke="#b59b00" stroke-width="2" stroke-linecap="round" stroke-linejoin="round"/>
<path class="braid-strand" d="M 288 319 C 288 331 318 343 318 355" fill="none" stroke="#e08214" stroke-width="2" stroke-linecap="round" stroke-linejoin="round"/>
<path class="braid-strand" d="M 318 319 C 318 323.72 313.358666667 328.44 307.727182222 333.16 M 298.272817778 340.84 C 292.641333333 345.56 288 350.28 288 355" fill="none" stroke="#23964f" stroke-width="2" stroke-linecap="round" stroke-linejoin="round"/>
<path class="braid-strand" d="M 348 319 L 348 355" fill="none" stroke="#168aad" stroke-width="2" stroke-linecap="round" stroke-linejoin="round"/>
<path class="braid-strand" d="M 378 319 L 378 355" fill="none" stroke="#5254c8" stroke-width="2" stroke-linecap="round" stroke-linejoin="round"/>
<path class="braid-strand" d="M 228 355 L 228 391" fill="none" stroke="#d73027" stroke-width="2" stroke-linecap="round" stroke-linejoin="round"/>
<path class="braid-strand" d="M 258 355 C 258 367 288 379 288 391" fill="none" stroke="#b59b00" stroke-width="2" stroke-linecap="round" stroke-linejoin="round"/>
<path class="braid-strand" d="M 288 355 C 288 359.72 283.358666667 364.44 277.727182222 369.16 M 268.272817778 376.84 C 262.641333333 381.56 258 386.28 258 391" fill="none" stroke="#23964f" stroke-width="2" stroke-linecap="round" stroke-linejoin="round"/>
<path class="braid-strand" d="M 318 355 L 318 391" fill="none" stroke="#e08214" stroke-width="2" stroke-linecap="round" stroke-linejoin="round"/>
<path class="braid-strand" d="M 348 355 L 348 391" fill="none" stroke="#168aad" stroke-width="2" stroke-linecap="round" stroke-linejoin="round"/>
<path class="braid-strand" d="M 378 355 L 378 391" fill="none" stroke="#5254c8" stroke-width="2" stroke-linecap="round" stroke-linejoin="round"/>
<path class="braid-strand" d="M 228 391 L 228 427" fill="none" stroke="#d73027" stroke-width="2" stroke-linecap="round" stroke-linejoin="round"/>
<path class="braid-strand" d="M 258 391 L 258 427" fill="none" stroke="#23964f" stroke-width="2" stroke-linecap="round" stroke-linejoin="round"/>
<path class="braid-strand" d="M 288 391 C 288 403 318 415 318 427" fill="none" stroke="#b59b00" stroke-width="2" stroke-linecap="round" stroke-linejoin="round"/>
<path class="braid-strand" d="M 318 391 C 318 395.72 313.358666667 400.44 307.727182222 405.16 M 298.272817778 412.84 C 292.641333333 417.56 288 422.28 288 427" fill="none" stroke="#e08214" stroke-width="2" stroke-linecap="round" stroke-linejoin="round"/>
<path class="braid-strand" d="M 348 391 L 348 427" fill="none" stroke="#168aad" stroke-width="2" stroke-linecap="round" stroke-linejoin="round"/>
<path class="braid-strand" d="M 378 391 L 378 427" fill="none" stroke="#5254c8" stroke-width="2" stroke-linecap="round" stroke-linejoin="round"/>
<path class="braid-strand" d="M 228 427 L 228 463" fill="none" stroke="#d73027" stroke-width="2" stroke-linecap="round" stroke-linejoin="round"/>
<path class="braid-strand" d="M 258 427 C 258 439 288 451 288 463" fill="none" stroke="#23964f" stroke-width="2" stroke-linecap="round" stroke-linejoin="round"/>
<path class="braid-strand" d="M 288 427 C 288 431.72 283.358666667 436.44 277.727182222 441.16 M 268.272817778 448.84 C 262.641333333 453.56 258 458.28 258 463" fill="none" stroke="#e08214" stroke-width="2" stroke-linecap="round" stroke-linejoin="round"/>
<path class="braid-strand" d="M 318 427 L 318 463" fill="none" stroke="#b59b00" stroke-width="2" stroke-linecap="round" stroke-linejoin="round"/>
<path class="braid-strand" d="M 348 427 L 348 463" fill="none" stroke="#168aad" stroke-width="2" stroke-linecap="round" stroke-linejoin="round"/>
<path class="braid-strand" d="M 378 427 L 378 463" fill="none" stroke="#5254c8" stroke-width="2" stroke-linecap="round" stroke-linejoin="round"/>
<path class="braid-strand" d="M 228 463 L 228 499" fill="none" stroke="#d73027" stroke-width="2" stroke-linecap="round" stroke-linejoin="round"/>
<path class="braid-strand" d="M 258 463 L 258 499" fill="none" stroke="#e08214" stroke-width="2" stroke-linecap="round" stroke-linejoin="round"/>
<path class="braid-strand" d="M 288 463 C 288 475 318 487 318 499" fill="none" stroke="#23964f" stroke-width="2" stroke-linecap="round" stroke-linejoin="round"/>
<path class="braid-strand" d="M 318 463 C 318 467.72 313.358666667 472.44 307.727182222 477.16 M 298.272817778 484.84 C 292.641333333 489.56 288 494.28 288 499" fill="none" stroke="#b59b00" stroke-width="2" stroke-linecap="round" stroke-linejoin="round"/>
<path class="braid-strand" d="M 348 463 L 348 499" fill="none" stroke="#168aad" stroke-width="2" stroke-linecap="round" stroke-linejoin="round"/>
<path class="braid-strand" d="M 378 463 L 378 499" fill="none" stroke="#5254c8" stroke-width="2" stroke-linecap="round" stroke-linejoin="round"/>
<text x="27" y="59" fill="#d73027" font-size="9" font-family="serif" text-anchor="middle">1</text>
<text x="27" y="513" fill="#d73027" font-size="9" font-family="serif" text-anchor="middle">1</text>
<text x="57" y="59" fill="#e08214" font-size="9" font-family="serif" text-anchor="middle">2</text>
<text x="57" y="513" fill="#e08214" font-size="9" font-family="serif" text-anchor="middle">2</text>
<text x="87" y="59" fill="#b59b00" font-size="9" font-family="serif" text-anchor="middle">3</text>
<text x="87" y="513" fill="#b59b00" font-size="9" font-family="serif" text-anchor="middle">3</text>
<text x="117" y="59" fill="#23964f" font-size="9" font-family="serif" text-anchor="middle">4</text>
<text x="117" y="513" fill="#23964f" font-size="9" font-family="serif" text-anchor="middle">4</text>
<text x="147" y="59" fill="#168aad" font-size="9" font-family="serif" text-anchor="middle">5</text>
<text x="147" y="513" fill="#168aad" font-size="9" font-family="serif" text-anchor="middle">5</text>
<text x="177" y="59" fill="#5254c8" font-size="9" font-family="serif" text-anchor="middle">6</text>
<text x="177" y="513" fill="#5254c8" font-size="9" font-family="serif" text-anchor="middle">6</text>
<text x="102" y="24" fill="#000000" font-size="10" font-family="serif" text-anchor="middle">Straight crossings (default)</text>
<text x="228" y="59" fill="#d73027" font-size="9" font-family="serif" text-anchor="middle">1</text>
<text x="228" y="513" fill="#d73027" font-size="9" font-family="serif" text-anchor="middle">1</text>
<text x="258" y="59" fill="#e08214" font-size="9" font-family="serif" text-anchor="middle">2</text>
<text x="258" y="513" fill="#e08214" font-size="9" font-family="serif" text-anchor="middle">2</text>
<text x="288" y="59" fill="#b59b00" font-size="9" font-family="serif" text-anchor="middle">3</text>
<text x="288" y="513" fill="#b59b00" font-size="9" font-family="serif" text-anchor="middle">3</text>
<text x="318" y="59" fill="#23964f" font-size="9" font-family="serif" text-anchor="middle">4</text>
<text x="318" y="513" fill="#23964f" font-size="9" font-family="serif" text-anchor="middle">4</text>
<text x="348" y="59" fill="#168aad" font-size="9" font-family="serif" text-anchor="middle">5</text>
<text x="348" y="513" fill="#168aad" font-size="9" font-family="serif" text-anchor="middle">5</text>
<text x="378" y="59" fill="#5254c8" font-size="9" font-family="serif" text-anchor="middle">6</text>
<text x="378" y="513" fill="#5254c8" font-size="9" font-family="serif" text-anchor="middle">6</text>
<text x="303" y="24" fill="#000000" font-size="10" font-family="serif" text-anchor="middle">Smooth crossings (optional)</text>
</svg>
